<svg data-v-423bf9ae="" xmlns="http://www.w3.org/2000/svg" viewBox="0 0 247 90" class="iconLeft"><!----><!----><!----><g data-v-423bf9ae="" id="5523666b-3581-4535-9493-ac3b4ecd548d" fill="black" transform="matrix(5.474453012044838,0,0,5.474453012044838,107.49227547584086,0.27372251486014676)"><path d="M3.01 13.47L3.01 12.67L1.20 12.67L1.20 8.44L3.00 8.44L3.00 7.70L1.20 7.70L1.20 3.64L3.02 3.64L3.02 2.87L0.45 2.87L0.45 13.47ZM6.99 13.47L6.99 2.87L6.27 2.87L6.27 7.98C6.27 8.92 6.29 9.45 6.30 9.86L6.24 9.86C6.19 9.46 6.09 8.92 4.82 2.87L3.82 2.87L3.82 13.47L4.54 13.47L4.54 7.25C4.54 6.13 4.54 5.52 4.51 4.72L4.56 4.72C4.70 5.50 4.91 6.30 6.55 13.47ZM10.18 8.51C10.19 8.67 10.19 8.92 10.19 9.46C10.19 11.27 10.12 11.82 10.00 12.31C9.90 12.73 9.76 12.87 9.35 12.87C8.96 12.87 8.81 12.73 8.71 12.31C8.58 11.79 8.51 11.24 8.51 8.08C8.51 5.05 8.57 4.51 8.68 4.09C8.79 3.60 8.96 3.44 9.34 3.44C9.77 3.44 9.90 3.64 10.00 4.09C10.08 4.45 10.14 5.14 10.14 5.56C10.14 5.88 10.14 6.01 10.12 6.10L10.85 6.10C10.86 5.96 10.86 5.85 10.86 5.56C10.86 4.93 10.82 4.19 10.63 3.54C10.44 2.94 10.11 2.69 9.34 2.69C8.57 2.69 8.26 2.90 8.02 3.64C7.85 4.17 7.77 4.80 7.77 8.08C7.77 11.49 7.85 12.14 8.05 12.78C8.26 13.44 8.60 13.65 9.34 13.65C10.09 13.65 10.42 13.45 10.63 12.78C10.79 12.24 10.91 11.51 10.91 9.32C10.91 8.58 10.89 8.11 10.88 7.77L9.09 7.77L9.09 8.51ZM14.53 13.47L13.59 2.87L12.29 2.87L11.28 13.47L12.05 13.47L12.32 10.36L13.50 10.36L13.75 13.47ZM13.45 9.62L12.36 9.62L12.81 4.83C12.87 4.19 12.89 3.78 12.89 3.47L12.95 3.47C12.95 3.78 12.98 4.19 13.03 4.83ZM17.35 8.51C17.36 8.67 17.36 8.92 17.36 9.46C17.36 11.27 17.29 11.82 17.16 12.31C17.07 12.73 16.93 12.87 16.52 12.87C16.13 12.87 15.97 12.73 15.88 12.31C15.75 11.79 15.68 11.24 15.68 8.08C15.68 5.05 15.74 4.51 15.85 4.09C15.96 3.60 16.13 3.44 16.51 3.44C16.94 3.44 17.07 3.64 17.16 4.09C17.25 4.45 17.30 5.14 17.30 5.56C17.30 5.88 17.30 6.01 17.29 6.10L18.02 6.10C18.03 5.96 18.03 5.85 18.03 5.56C18.03 4.93 17.99 4.19 17.79 3.54C17.61 2.94 17.28 2.69 16.51 2.69C15.74 2.69 15.43 2.90 15.19 3.64C15.02 4.17 14.94 4.80 14.94 8.08C14.94 11.49 15.02 12.14 15.22 12.78C15.43 13.44 15.76 13.65 16.51 13.65C17.26 13.65 17.58 13.45 17.79 12.78C17.96 12.24 18.07 11.51 18.07 9.32C18.07 8.58 18.06 8.11 18.05 7.77L16.25 7.77L16.25 8.51ZM21.41 13.47L21.41 12.67L19.60 12.67L19.60 8.44L21.39 8.44L21.39 7.70L19.60 7.70L19.60 3.64L21.42 3.64L21.42 2.87L18.84 2.87L18.84 13.47ZM23.86 13.47C24.63 13.47 24.95 13.29 25.16 12.66C25.35 12.04 25.42 11.54 25.42 8.16C25.42 4.96 25.37 4.34 25.14 3.71C24.92 3.08 24.58 2.87 23.86 2.87L22.23 2.87L22.23 13.47ZM22.99 12.68L22.99 3.64L23.84 3.64C24.21 3.64 24.36 3.78 24.49 4.19C24.64 4.69 24.65 5.24 24.65 8.16C24.65 11.21 24.61 11.68 24.49 12.18C24.39 12.57 24.22 12.68 23.84 12.68Z"></path></g><!----><g data-v-423bf9ae="" id="0973b6ec-cdce-4a0a-a23b-7e754d3940e1" transform="matrix(2.1010833604210544,0,0,2.1010833604210544,-6.932982069946867,-5.179908281035942)" stroke="none" fill="black"><path d="M19.631 17.296c0-3.515-2.858-6.377-6.373-6.377s-6.374 2.859-6.374 6.377c0 3.515 2.859 6.371 6.374 6.371s6.373-2.856 6.373-6.371zm-9.592 0a3.227 3.227 0 0 1 3.22-3.222 3.225 3.225 0 0 1 3.219 3.222 3.219 3.219 0 1 1-6.439 0zM36.334 30.495H15.347v-.011h-3.154v1.589c0 3.616 1.414 7.037 3.986 9.642a13.6 13.6 0 0 0 9.667 4.008c7.522 0 13.643-6.121 13.643-13.649v-1.589h-3.154v.01zM25.841 42.568a10.439 10.439 0 0 1-7.43-3.077c-1.599-1.614-2.581-3.654-2.914-5.841h20.676c-.767 5.037-5.085 8.918-10.332 8.918zM36.223 10.898a6.38 6.38 0 0 0-6.373 6.376c0 3.512 2.857 6.37 6.373 6.37s6.373-2.858 6.373-6.37c.004-3.517-2.858-6.376-6.373-6.376zm0 9.59a3.224 3.224 0 0 1-3.219-3.216 3.226 3.226 0 0 1 3.219-3.222 3.225 3.225 0 0 1 3.221 3.222 3.222 3.222 0 0 1-3.221 3.216zM13.766 6.043c2.384 0 4.633.934 6.331 2.627a7.91 7.91 0 0 1 1.148 1.464l2.702-1.624a10.557 10.557 0 0 0-1.624-2.07 12.041 12.041 0 0 0-8.561-3.552c-4.184 0-7.985 2.095-10.17 5.601l2.678 1.669c1.609-2.574 4.41-4.115 7.496-4.115zM36.227 2.889c-4.184 0-7.986 2.095-10.172 5.601l2.68 1.669C30.34 7.58 33.139 6.04 36.227 6.04a8.91 8.91 0 0 1 6.33 2.628c.449.453.834.942 1.148 1.463l2.701-1.624a10.544 10.544 0 0 0-1.623-2.07 12.049 12.049 0 0 0-8.556-3.548z"></path></g><!----></svg>